<svg width="1440" height="900" viewBox="0 0 1440 900" fill="none" xmlns="http://www.w3.org/2000/svg">
<rect width="1440" height="900" fill="#F2F1F5"/>
<g opacity="0.6" clip-path="url(#clip0_5728_9173)">
<g style="mix-blend-mode:color" opacity="0.6">
<path d="M1440 0V900H0V0H1440Z" fill="url(#paint0_linear_5728_9173)"/>
</g>
<g opacity="0.4">
<path d="M-250 566V987.875H528.143C496.2 901.969 422.057 815.469 329.6 788.312C196.772 749.313 99.0287 854.063 -3.7713 811.188C-109.486 767.062 -52.5713 636.812 -157.6 585.188C-183.371 572.531 -215.028 566.5 -250 566Z" fill="url(#paint1_linear_5728_9173)"/>
</g>
<path d="M1521.51 988.375V634C1501.71 634.812 1482.49 637.344 1464.37 641.5C1338.29 670.469 1340.54 761.969 1218.66 825.875C990.115 945.719 820.229 709.125 532.943 779C400.086 811.312 270.914 902.188 207 988.375H1521.51Z" fill="url(#paint2_linear_5728_9173)"/>
<path d="M2005.03 449.543C1913.29 359.597 1853.35 207.968 1683.74 141.668C1381.4 23.4653 1144.14 338.197 910.535 169.131C854.526 128.568 785.532 50.6747 794.852 -25.0721C801.866 -81.8346 852.606 -135.76 1004.69 -193.444" stroke="#47EAFF" stroke-width="0.666667" stroke-miterlimit="10"/>
<path d="M2014.98 444.366C1923.24 354.419 1863.29 202.791 1693.69 136.491C1391.35 18.2875 1154.08 333.019 920.484 163.95C864.475 123.387 795.478 45.4968 804.801 -30.25C811.812 -87.0125 862.552 -140.938 1014.63 -198.622" stroke="#47EAFF" stroke-width="0.666667" stroke-miterlimit="10"/>
<path d="M2024.93 439.184C1933.18 349.237 1873.24 197.612 1703.64 131.312C1401.3 13.1093 1164.03 327.841 930.432 158.772C874.421 118.209 805.427 40.3187 814.75 -35.4282C821.761 -92.1938 872.501 -146.116 1024.58 -203.803" stroke="#47EAFF" stroke-width="0.666667" stroke-miterlimit="10"/>
<path d="M2034.87 434.006C1943.13 344.059 1883.19 192.431 1713.58 126.134C1411.25 7.93133 1173.98 322.663 940.378 153.594C884.37 113.031 815.375 35.1408 824.695 -40.6092C831.71 -97.3717 882.447 -151.297 1034.53 -208.981" stroke="#47EAFF" stroke-width="0.666667" stroke-miterlimit="10"/>
<path d="M2044.82 428.828C1953.08 338.881 1893.14 187.253 1723.53 120.956C1421.2 2.74993 1183.92 317.484 950.326 148.412C894.318 107.853 825.324 29.9593 834.644 -45.7876C841.655 -102.553 892.395 -156.475 1044.48 -214.163" stroke="#47EAFF" stroke-width="0.666667" stroke-miterlimit="10"/>
<path d="M2054.77 423.65C1963.02 333.7 1903.08 182.075 1733.48 115.775C1431.14 -2.42804 1193.87 312.303 960.275 143.234C904.267 102.672 835.269 24.7813 844.589 -50.9687C851.604 -107.731 902.344 -161.653 1054.42 -219.341" stroke="#47EAFF" stroke-width="0.666667" stroke-miterlimit="10"/>
<path d="M2064.71 418.469C1972.97 328.522 1913.03 176.894 1743.43 110.594C1441.09 -7.60627 1203.82 307.125 970.223 138.053C914.212 97.4938 845.218 19.6031 854.538 -56.1469C861.552 -112.909 912.292 -166.831 1064.37 -224.519" stroke="#47EAFF" stroke-width="0.666667" stroke-miterlimit="10"/>
<path d="M2074.66 413.291C1982.92 323.344 1922.98 171.716 1753.37 105.416C1451.04 -12.7845 1213.77 301.944 980.169 132.875C924.161 92.3155 855.166 14.4218 864.486 -61.3251C871.498 -118.088 922.238 -172.013 1074.32 -229.697" stroke="#47EAFF" stroke-width="0.666667" stroke-miterlimit="10"/>
<path d="M2084.61 408.112C1992.87 318.162 1932.92 166.537 1763.32 100.237C1460.99 -17.9656 1223.72 296.766 990.115 127.697C934.107 87.1374 865.112 9.2437 874.435 -66.5063C881.447 -123.269 932.187 -177.191 1084.27 -234.878" stroke="#47EAFF" stroke-width="0.666667" stroke-miterlimit="10"/>
<path d="M2094.56 402.931C2002.82 312.984 1942.88 161.356 1773.27 95.0561C1470.93 -23.147 1233.66 291.587 1000.06 122.519C944.055 81.9562 875.061 4.06236 884.381 -71.6845C891.395 -128.447 942.132 -182.372 1094.21 -240.056" stroke="#47EAFF" stroke-width="0.666667" stroke-miterlimit="10"/>
<path d="M2104.51 397.753C2012.76 307.806 1952.82 156.178 1783.22 89.8782C1480.88 -28.325 1243.61 286.406 1010.01 117.338C954.003 76.7751 885.006 -1.11554 894.329 -76.8624C901.343 -133.625 952.081 -187.55 1104.16 -245.234" stroke="#47EAFF" stroke-width="0.666667" stroke-miterlimit="10"/>
<path d="M2114.45 392.572C2022.71 302.628 1962.77 151 1793.16 84.7C1490.83 -33.5031 1253.56 281.228 1019.96 112.159C963.949 71.5969 894.955 -6.29373 904.275 -82.0437C911.289 -138.806 962.029 -192.728 1114.11 -250.416" stroke="#47EAFF" stroke-width="0.666667" stroke-miterlimit="10"/>
<path d="M2124.4 387.394C2032.66 297.447 1972.71 145.819 1803.11 79.5219C1500.77 -38.6812 1263.5 276.05 1029.91 106.981C973.898 66.4188 904.903 -11.4718 914.223 -87.2218C921.238 -143.984 971.975 -197.906 1124.06 -255.594" stroke="#47EAFF" stroke-width="0.666667" stroke-miterlimit="10"/>
<path d="M2134.35 382.216C2042.61 292.269 1982.67 140.641 1813.06 74.3406C1510.72 -43.8626 1273.46 270.869 1039.86 101.8C983.847 61.2406 914.852 -16.6531 924.172 -92.4C931.184 -149.166 981.924 -203.087 1134 -260.775" stroke="#47EAFF" stroke-width="0.666667" stroke-miterlimit="10"/>
<path d="M2144.3 377.037C2052.55 287.087 1992.61 135.462 1823.01 69.1624C1520.67 -49.0407 1283.4 265.69 1049.8 96.6217C993.795 56.0624 924.798 -21.8314 934.118 -97.5782C941.132 -154.344 991.872 -208.266 1143.95 -265.953" stroke="#47EAFF" stroke-width="0.666667" stroke-miterlimit="10"/>
<path d="M2154.24 371.856C2062.5 281.91 2002.56 130.285 1832.96 63.9815C1530.62 -54.2185 1293.35 260.513 1059.75 91.4408C1003.74 50.8814 934.747 -27.0092 944.067 -102.759C951.081 -159.522 1001.82 -213.447 1153.9 -271.131" stroke="#47EAFF" stroke-width="0.666667" stroke-miterlimit="10"/>
<path d="M2164.19 366.678C2072.45 276.731 2012.51 125.103 1842.9 58.803C1540.57 -59.4002 1303.3 255.331 1069.7 86.2624C1013.69 45.703 944.692 -32.1908 954.015 -107.938C961.027 -164.7 1011.77 -218.625 1163.85 -276.31" stroke="#47EAFF" stroke-width="0.666667" stroke-miterlimit="10"/>
<path d="M2174.14 361.497C2082.4 271.55 2022.45 119.925 1852.85 53.6247C1550.51 -64.5784 1313.25 250.153 1079.65 81.0841C1023.63 40.5247 954.641 -37.369 963.964 -113.119C970.975 -169.882 1021.71 -223.803 1173.79 -281.491" stroke="#47EAFF" stroke-width="0.666667" stroke-miterlimit="10"/>
<path d="M2184.09 356.319C2092.34 266.372 2032.4 114.744 1862.8 48.4469C1560.46 -69.7594 1323.19 244.975 1089.59 75.9031C1033.58 35.3437 964.589 -42.55 973.909 -118.297C980.924 -175.059 1031.66 -228.984 1183.74 -286.669" stroke="#47EAFF" stroke-width="0.666667" stroke-miterlimit="10"/>
<path d="M2194.03 351.141C2102.29 261.194 2042.35 109.566 1872.75 43.2656C1570.41 -74.9375 1333.14 239.797 1099.54 70.725C1043.53 30.1656 974.535 -47.7282 983.858 -123.475C990.872 -180.238 1041.61 -234.163 1193.69 -291.847" stroke="#47EAFF" stroke-width="0.666667" stroke-miterlimit="10"/>
<path d="M2203.98 345.962C2112.24 256.016 2052.3 104.387 1882.69 38.0874C1580.36 -80.1157 1343.09 234.616 1109.49 65.5468C1053.48 24.9843 984.484 -52.9063 993.804 -128.653C1000.82 -185.419 1051.56 -239.341 1203.64 -297.028" stroke="#47EAFF" stroke-width="0.666667" stroke-miterlimit="10"/>
<path d="M2213.93 340.781C2122.19 250.834 2062.24 99.2093 1892.64 32.9093C1590.3 -85.2939 1353.04 229.437 1119.44 60.3686C1063.43 19.8061 994.433 -58.0845 1003.75 -133.835C1010.77 -190.597 1061.5 -244.519 1213.59 -302.206" stroke="#47EAFF" stroke-width="0.666667" stroke-miterlimit="10"/>
<path d="M2223.88 335.603C2132.14 245.656 2072.19 94.0282 1902.59 27.7283C1600.25 -90.4717 1362.98 224.259 1129.38 55.1876C1073.38 14.6282 1004.38 -63.2624 1013.7 -139.012C1020.71 -195.778 1071.45 -249.697 1223.53 -307.387" stroke="#47EAFF" stroke-width="0.666667" stroke-miterlimit="10"/>
<path d="M2233.83 330.425C2142.08 240.475 2082.14 88.8497 1912.54 22.5497C1610.2 -95.6534 1372.93 219.078 1139.33 50.0091C1083.32 9.44976 1014.33 -68.4441 1023.65 -144.191C1030.66 -200.957 1081.4 -254.878 1233.48 -312.566" stroke="#47EAFF" stroke-width="0.666667" stroke-miterlimit="10"/>
<path d="M2243.77 325.244C2152.03 235.297 2092.09 83.6719 1922.48 17.3688C1620.15 -100.831 1382.88 213.897 1149.28 44.8282C1093.27 4.26879 1024.27 -73.6218 1033.59 -149.372C1040.61 -206.134 1091.35 -260.059 1243.43 -317.744" stroke="#47EAFF" stroke-width="0.666667" stroke-miterlimit="10"/>
<path d="M2253.72 320.066C2161.98 230.119 2102.03 78.4937 1932.43 12.1906C1630.09 -106.013 1392.82 208.719 1159.23 39.6499C1103.22 -0.909471 1034.22 -78.8032 1043.54 -154.55C1050.55 -211.313 1101.3 -265.238 1253.38 -322.922" stroke="#47EAFF" stroke-width="0.666667" stroke-miterlimit="10"/>
<path d="M2263.67 314.884C2171.93 224.937 2111.98 73.3124 1942.38 7.01238C1640.04 -111.191 1402.78 203.541 1169.18 34.4718C1113.16 -6.08758 1044.17 -83.9814 1053.49 -159.731C1060.5 -216.494 1111.24 -270.416 1263.32 -328.103" stroke="#47EAFF" stroke-width="0.666667" stroke-miterlimit="10"/>
<path d="M2273.62 309.706C2181.87 219.76 2121.93 68.1314 1952.33 1.83453C1649.99 -116.369 1412.72 198.363 1179.12 29.2939C1123.11 -11.2686 1054.12 -89.1592 1063.44 -164.909C1070.45 -221.672 1121.19 -275.594 1273.27 -333.281" stroke="#47EAFF" stroke-width="0.666667" stroke-miterlimit="10"/>
<path d="M2283.56 304.528C2191.82 214.581 2131.88 62.953 1962.27 -3.34703C1659.93 -121.55 1422.67 193.181 1189.07 24.1123C1133.06 -16.4471 1064.07 -94.3408 1073.39 -170.088C1080.4 -226.853 1131.14 -280.775 1283.22 -338.46" stroke="#47EAFF" stroke-width="0.666667" stroke-miterlimit="10"/>
<path d="M2293.51 299.35C2201.77 209.403 2141.83 57.7751 1972.22 -8.52486C1669.89 -126.728 1432.62 188.003 1199.02 18.9345C1143.01 -21.628 1074.01 -99.5186 1083.33 -175.269C1090.35 -232.031 1141.09 -285.953 1293.17 -343.64" stroke="#47EAFF" stroke-width="0.666667" stroke-miterlimit="10"/>
<path d="M2303.46 294.172C2211.71 204.222 2151.77 52.5969 1982.17 -13.7031C1679.83 -131.906 1442.56 182.825 1208.96 13.7563C1152.95 -26.8062 1083.96 -104.697 1093.28 -180.447C1100.29 -237.209 1151.03 -291.131 1303.11 -348.819" stroke="#47EAFF" stroke-width="0.666667" stroke-miterlimit="10"/>
<path d="M2313.41 288.991C2221.66 199.041 2161.72 47.4157 1992.12 -18.8843C1689.78 -137.087 1452.51 177.647 1218.91 8.57499C1162.9 -31.9844 1093.91 -109.875 1103.23 -185.625C1110.24 -242.387 1160.98 -296.309 1313.06 -354" stroke="#47EAFF" stroke-width="0.666667" stroke-miterlimit="10"/>
</g>
<defs>
<linearGradient id="paint0_linear_5728_9173" x1="-78.5" y1="859" x2="3844" y2="42.0001" gradientUnits="userSpaceOnUse">
<stop stop-color="white"/>
<stop offset="1" stop-color="#08BBD3"/>
</linearGradient>
<linearGradient id="paint1_linear_5728_9173" x1="326.929" y1="365.969" x2="-252.09" y2="1026.21" gradientUnits="userSpaceOnUse">
<stop stop-color="#08BBD3"/>
<stop offset="1" stop-color="white"/>
</linearGradient>
<linearGradient id="paint2_linear_5728_9173" x1="956.5" y1="40" x2="1039.14" y2="1021.37" gradientUnits="userSpaceOnUse">
<stop stop-color="#08BBD3"/>
<stop offset="1" stop-color="white"/>
</linearGradient>
<clipPath id="clip0_5728_9173">
<rect width="1440" height="900" fill="white"/>
</clipPath>
</defs>
</svg>
